<?xml version="1.0" encoding="utf-8"?>
<!-- Generator: Adobe Illustrator 19.2.0, SVG Export Plug-In . SVG Version: 6.00 Build 0)  -->
<svg version="1.1" id="Layer_1" xmlns="http://www.w3.org/2000/svg" xmlns:xlink="http://www.w3.org/1999/xlink" x="0px" y="0px"
	 viewBox="0 0 612 792" style="enable-background:new 0 0 612 792;" xml:space="preserve">
<style type="text/css">
	.st0{fill-rule:evenodd;clip-rule:evenodd;fill:#1A1A1A;}
</style>
<polygon points="75.1,424.2 81,424.2 104.1,458.7 104.3,458.7 104.3,424.2 109.7,424.2 109.7,467.9 103.9,467.9 80.7,433.5 
	80.5,433.5 80.5,467.9 75.1,467.9 "/>
<rect x="125.2" y="424.2" width="5.8" height="43.7"/>
<polygon points="202.9,424.2 208.6,424.2 208.6,442.7 232.7,442.7 232.7,424.2 238.5,424.2 238.5,467.9 232.7,467.9 232.7,447.8 
	208.6,447.8 208.6,467.9 202.9,467.9 "/>
<polygon points="263.2,429.2 250.1,429.2 250.1,424.2 282.1,424.2 282.1,429.2 269,429.2 269,467.9 263.2,467.9 "/>
<polygon points="289.6,424.2 295.8,424.2 306,458.3 306.1,458.3 317.1,424.2 323,424.2 334,458.3 334.1,458.3 344.3,424.2 
	350.5,424.2 337.1,467.9 331.4,467.9 320.1,432.2 320,432.2 308.7,467.9 303,467.9 "/>
<path d="M374.2,424.2h6.1l15.8,43.7H390l-4.7-13.4h-16.6l-5,13.4h-6.2L374.2,424.2z M377.2,431.4h-0.1l-6.6,18.1h13L377.2,431.4z"/>
<polygon points="417.1,429.2 404,429.2 404,424.2 436,424.2 436,429.2 422.9,429.2 422.9,467.9 417.1,467.9 "/>
<path d="M482.1,437.7c-0.7-2.9-2.6-5.5-5-7.2c-2.5-1.7-5.5-2.7-8.8-2.7c-5.4,0-9.3,2.1-11.9,5.5c-2.6,3.4-3.8,7.9-3.8,12.8
	c0,4.9,1.2,9.4,3.8,12.8c2.6,3.4,6.5,5.5,11.9,5.5c3.7,0,7.1-1.3,9.6-3.6c2.5-2.3,4.2-5.5,4.7-9.4l6.1,0.7c-1,5.2-3.7,9.4-7.3,12.3
	c-3.7,2.9-8.4,4.6-13.1,4.6c-6.8,0-12.3-2.3-16.1-6.4c-3.8-4.1-5.9-9.8-5.9-16.6c0-6.8,2.1-12.6,5.9-16.6c3.8-4.1,9.3-6.3,16.1-6.3
	c4.7,0,9,1.2,12.5,3.4c3.4,2.3,6.1,5.6,7.4,10.1L482.1,437.7z"/>
<polygon points="501.6,424.2 507.4,424.2 507.4,442.7 531.4,442.7 531.4,424.2 537.2,424.2 537.2,467.9 531.4,467.9 531.4,447.8 
	507.4,447.8 507.4,467.9 501.6,467.9 "/>
<path d="M170.8,445.7h18.4v1.8c0,6.4-2,11.8-6.1,16.1c-4.1,4.3-9.4,6.4-15.8,6.4c-6.4,0-11.9-2.4-16.5-7.2
	c-4.6-4.8-6.9-10.4-6.9-16.9c0-6.7,2.3-12.4,7-17.1c4.7-4.7,10.3-7.1,17-7.1c3.6,0,7.1,0.8,10.5,2.4c3.3,1.6,6.1,3.8,8.4,6.6
	l-4.1,3.9c-1.7-2.3-3.8-4.1-6.4-5.5c-2.6-1.4-5.3-2.1-8.1-2.1c-5.2,0-9.5,1.8-13.1,5.5c-3.6,3.7-5.4,8.1-5.4,13.3
	c0,5,1.8,9.3,5.3,13.2c3.5,3.8,7.8,5.7,12.7,5.7c3.7,0,7.1-1.4,10.3-4.1c3.2-2.7,4.8-6,4.9-9.6h-12V445.7z"/>
<path class="st0" d="M329,315c0.1,0.8,0.5,1.6,1,2.1c0.6,0.6,1.5,1,2.5,1c1,0,1.8-0.4,2.5-1c0.6-0.6,1-1.5,1-2.5
	c0-0.8-0.2-1.5-0.7-2c-0.2-0.3-0.4-0.5-0.7-0.7L329,315L329,315z M318.7,297.1l-12.8,5.9l-12.8-5.8l0.7-3.1l0.3-1.3l-1.2-0.7
	l-16.4-9.9h29.3h29.3l-16.4,9.9l-1.1,0.7l0.3,1.3L318.7,297.1L318.7,297.1z M376.8,308.6l77.1,28.5c6.4,1.8,14.7,2.2,23.3-0.9
	c0.9-0.3,1.8-0.7,2.7-1.1l-99.7-31.1L376.8,308.6L376.8,308.6z M467.3,342.1l13.6,5l2.8,1l-2.2,2c-6.3,5.7-13.8,8.9-21.4,10.2
	c-4.1,0.7-8.3,0.9-12.4,0.6l9.3,4.2l3.1,1.4l-2.9,1.8c-13.9,8.6-29,8-44.1,3.4c-11.4,4.8-20.6,5.9-29.7,3.9
	c-8.9-1.9-17.7-6.7-28.7-13.7l-47.8,26.8l-0.9,0.5l-0.9-0.5l-47.8-26.8c-11,7-19.8,11.8-28.7,13.7c-9.2,2-18.3,0.9-29.7-3.9
	c-15,4.6-30.2,5.2-44.1-3.4l-2.9-1.8l3.1-1.4l9.3-4.2c-4.1,0.2-8.3,0.1-12.4-0.6c-7.6-1.3-15.1-4.4-21.4-10.2l-2.2-2l2.8-1l13.6-5
	c-3.6-0.3-7.4-1-11.2-2.4c-7.4-2.7-14.8-7.7-21.4-16l-1.8-2.3l2.9-0.6L228.9,296l1.2-0.2l0.7,1l18.7,25.5l0.1,0v-52.8V266l2.8,1.7
	l18.1,10.9h35.5h35.4l18.1-10.9l2.8-1.7v3.2v52.8l0.1,0l18.7-25.4l0.7-1l1.2,0.2l115.8,24.7l2.9,0.6l-1.8,2.3
	c-6.6,8.4-14,13.4-21.3,16.1C474.7,341.1,470.9,341.8,467.3,342.1L467.3,342.1z M434.5,355l-68.8-31.3l4.7-6.4l91.7,38.9
	c-0.9,0.2-1.8,0.4-2.7,0.5C450.9,358.2,442.1,357.2,434.5,355L434.5,355z M149.7,356.2c0.9,0.2,1.8,0.4,2.7,0.5
	c8.5,1.5,17.3,0.5,24.9-1.8l68.7-31.3l-4.7-6.4L149.7,356.2L149.7,356.2z M158,337.1l77-28.5l-3.3-4.5L132,335.1
	c0.9,0.4,1.8,0.8,2.7,1.1C143.3,339.3,151.7,338.9,158,337.1L158,337.1z M362.2,342.7v-6.4l71.8,35.1c-20.1,0.4-41.7-11.8-60.6-22.5
	C369.5,346.7,365.6,344.5,362.2,342.7L362.2,342.7z M362.2,354.4v2.2v1.1l-0.9,0.5l-3.1,1.7c9.9,6.2,17.9,10.5,25.9,12.2
	c3.9,0.8,7.8,1.1,12,0.6L362.2,354.4L362.2,354.4z M177.8,371.4c20.1,0.4,41.7-11.8,60.6-22.5c4-2.2,7.8-4.4,11.2-6.2v-6.4
	L177.8,371.4L177.8,371.4z M215.7,372.7c4.2,0.5,8.1,0.2,12-0.6c8-1.7,16-6,25.8-12.2l-3.1-1.7l-0.9-0.5v-1.1v-2.2L215.7,372.7
	L215.7,372.7z M358.6,333.4l-6.9,9.3l-0.2,0.3l-0.3,0.2l-4.4,2.5v16.4l11.8-6.6V333.4L358.6,333.4z M268.8,351.6v1.9l37.2,20.8
	l37.1-20.8v-1.9l-37.1,19.3L268.8,351.6L268.8,351.6z M265.1,345.7l-4.4-2.5l-0.3-0.2l-0.2-0.3l-6.9-9.3v22.1l11.8,6.6V345.7
	L265.1,345.7z M253.3,327.2v-24.4l9.8,10l1.9,9.8l0,0l0.1,0.4l0.2,0.9l0.2,1.2l0.1,0l1.9,8.4l30.4,12.8l8.2,13.5l8.2-13.5l30.3-12.8
	l1.9-8.4l0.1,0l0.2-1.2l0.2-0.9l0.1-0.4l0,0l1.9-9.8l9.8-10v24.4l-9.6,13l-25.1,14.1l0,0l-18,9l-16.3-7.9l-26.8-15.2L253.3,327.2
	L253.3,327.2z M305,312.4l0.9,0.5l0.9-0.5l15.8-9l1.2-0.7l-0.3-1.3l-1.6-6.9l36.7-22v11.2l-10.8,16.7l-36.6,20.5l-3.9-4l-1.3-1.3
	l-1.3,1.3l-4,4l-36.6-20.5l-10.8-16.7v-11.2l36.7,22l-1.6,6.9l-0.3,1.3l1.2,0.7L305,312.4L305,312.4z M268.8,364.2l37.2,20.8
	l37.1-20.8v-2.7l-37.1,20.1l-37.2-20.1V364.2L268.8,364.2z M293.2,320.8l-7-3.9c-0.4,1.1-1,2-1.7,2.8c-1.3,1.3-3.1,2.1-5.1,2.1
	c-2,0-3.8-0.8-5.1-2.1c-1.3-1.3-2.1-3.1-2.1-5.1c0-1.5,0.5-3,1.4-4.2c0.1-0.1,0.2-0.3,0.3-0.4l-8.6-4.8l3.2,16.8l19.8,4.6
	L293.2,320.8L293.2,320.8z M282.9,315l-5.6-3.1c-0.3,0.2-0.5,0.4-0.7,0.7c-0.4,0.6-0.7,1.3-0.7,2.1c0,1,0.4,1.9,1,2.5
	c0.6,0.6,1.5,1,2.5,1c1,0,1.9-0.4,2.5-1C282.4,316.6,282.8,315.9,282.9,315L282.9,315z M337.9,310l8.6-4.8l-3.2,16.8l-19.8,4.6
	l-4.9-5.8l7-3.9c0.4,1.1,1,2,1.7,2.8c1.3,1.3,3.1,2.1,5.1,2.1c2,0,3.8-0.8,5.1-2.1c1.3-1.3,2.1-3.1,2.1-5.1c0-1.5-0.5-3-1.4-4.2
	C338.2,310.3,338.1,310.2,337.9,310L337.9,310z M299.2,329.5l6.7,13.1l6.7-13.1l-3.2-5.3l-3.5-3.5l-3.5,3.5L299.2,329.5z"/>
</svg>
