<?xml version="1.0" encoding="utf-8"?>
<!-- Generator: Adobe Illustrator 19.2.0, SVG Export Plug-In . SVG Version: 6.00 Build 0)  -->
<svg version="1.1" id="Layer_1" xmlns="http://www.w3.org/2000/svg" xmlns:xlink="http://www.w3.org/1999/xlink" x="0px" y="0px"
	 viewBox="134 -134 310 310" style="enable-background:new 134 -134 310 310;" xml:space="preserve">
<style type="text/css">
	.st0{fill:#181818;}
	.st1{clip-path:url(#SVGID_2_);fill:#FFFFFF;}
</style>
<g>
	<path class="st0" d="M141.8-134h294.5c4.3,0,7.7,3.5,7.7,7.7v294.5c0,4.3-3.5,7.7-7.7,7.7H141.8c-4.3,0-7.7-3.5-7.7-7.7v-294.5
		C134-130.5,137.5-134,141.8-134"/>
	<g>
		<defs>
			<polyline id="SVGID_1_" points="158.5,-102.9 419.5,-102.9 419.5,130.6 158.5,130.6 158.5,-102.9 			"/>
		</defs>
		<clipPath id="SVGID_2_">
			<use xlink:href="#SVGID_1_"  style="overflow:visible;"/>
		</clipPath>
		<path class="st1" d="M289,21.1l-8.7,9l-8,13.6L289,77.3l16.6-33.6l-7.9-13.6L289,21.1 M188.3-18.8l8,43.2l49,11.8l12.1-14.8
			l-17.3-10.1c-0.9,2.8-2.4,5.3-4.3,7.3c-3.2,3.4-7.7,5.4-12.6,5.4c-4.9,0-9.3-2.1-12.5-5.4c-3.2-3.3-5.2-8-5.2-13
			c0-4,1.2-7.7,3.4-10.8c0.3-0.4,0.5-0.8,0.8-1.1L188.3-18.8 M389.7-18.8L368.4-6.4c0.3,0.4,0.6,0.7,0.9,1.1
			c2.2,3.1,3.4,6.8,3.4,10.8c0,5.1-2,9.7-5.2,13c-3.2,3.4-7.7,5.4-12.6,5.4c-4.9,0-9.4-2.1-12.6-5.4c-1.9-2-3.4-4.5-4.3-7.3
			l-17.3,10.1l12.1,14.8l49.1-11.8L389.7-18.8 M419.5-25L395.4,0.7l-10.8,53.2l-75.3,32.8L289,121.3l-20.4-34.6l-75.3-32.8
			L182.6,0.7L158.5-25v62.8l23.8,33.5l66.4,39.1l40.4,20.2l44.6-23.2v0l62.2-36.2l23.8-33.5V-25 M361.8-77.9H289h-72.8l43.5,27.1
			l-2.5,11.2l31.8,15l31.7-15l-2.5-11.2L361.8-77.9 M419.5-102.9L419.5-102.9l-90.9,56.6l4.7,21L289,0.9l-44.4-26.1l4.8-21l-91-56.6
			v28.7l26.7,42.8L276,21.3L289,7.8l13,13.5l90.8-52.7l26.7-42.8V-102.9"/>
	</g>
</g>
</svg>
