<?xml version="1.0" encoding="UTF-8"?>
<svg width="89px" height="43px" viewBox="0 0 89 43" version="1.1" xmlns="http://www.w3.org/2000/svg" xmlns:xlink="http://www.w3.org/1999/xlink">
    <!-- Generator: Sketch 41 (35326) - http://www.bohemiancoding.com/sketch -->
    <title>Group@svg</title>
    <desc>Created with Sketch.</desc>
    <defs>
        <polygon id="path-1" points="6.89620224 8.39310711 6.89620224 0.0364678371 0.0844023088 0.0364678371 0.0844023088 8.39310711 6.89620224 8.39310711"></polygon>
        <polygon id="path-3" points="0.138203282 9.36542986 8.80526656 9.36542986 8.80526656 0.14092105 0.138203282 0.14092105"></polygon>
        <polygon id="path-5" points="75.4896217 23.6102634 0 23.6102634 0 0.000234146341 75.4896217 0.000234146341 75.4896217 23.6102634"></polygon>
    </defs>
    <g id="Email-design" stroke="none" stroke-width="1" fill="none" fill-rule="evenodd">
        <g id="Group">
            <g id="Page-1" transform="translate(0.000000, 33.000000)">
                <polygon id="Fill-1" fill="#221F20" points="5.56676546 0.660129014 5.56676546 7.25606748 5.54343195 7.25606748 1.11560994 0.660129014 0 0.660129014 0 9.01657716 1.03356011 9.01657716 1.03356011 2.43248883 1.05689363 2.43248883 5.49657365 9.01657716 6.60032557 9.01657716 6.60032557 0.660129014"></polygon>
                <polygon id="Fill-2" fill="#221F20" points="9.58261699 9.01659627 10.6865602 9.01659627 10.6865602 0.660148127 9.58261699 0.660148127"></polygon>
                <polygon id="Fill-3" fill="#221F20" points="24.4269998 0.6601099 25.5309429 0.6601099 25.5309429 4.20444728 30.1347226 4.20444728 30.1347226 0.6601099 31.2386658 0.6601099 31.2386658 9.01674918 30.1347226 9.01674918 30.1347226 5.16698411 25.5309429 5.16698411 25.5309429 9.01674918 24.4269998 9.01674918"></polygon>
                <polygon id="Fill-4" fill="#221F20" points="35.9710858 1.62249383 33.4575686 1.62249383 33.4575686 0.660148127 39.588355 0.660148127 39.588355 1.62249383 37.075029 1.62249383 37.075029 9.01659627 35.9710858 9.01659627"></polygon>
                <polygon id="Fill-5" fill="#221F20" points="41.009022 0.6601099 42.1952063 0.6601099 44.1447026 7.1859032 44.1680361 7.1859032 46.2705391 0.6601099 47.4098651 0.6601099 49.5119856 7.1859032 49.5355104 7.1859032 51.485198 0.6601099 52.6715735 0.6601099 50.0991487 9.01674918 49.0070636 9.01674918 46.8460355 2.18591044 46.8225107 2.18591044 44.6731494 9.01674918 43.580873 9.01674918"></polygon>
                <path d="M57.7793572,2.03325394 L57.7560237,2.03325394 L56.4875983,5.49559602 L58.9773995,5.49559602 L57.7793572,2.03325394 Z M57.1921941,0.66016724 L58.3665203,0.66016724 L61.3968176,9.01661538 L60.210442,9.01661538 L59.3180306,6.45794172 L56.1469672,6.45794172 L55.1837901,9.01661538 L53.9977971,9.01661538 L57.1921941,0.66016724 Z" id="Fill-6" fill="#221F20"></path>
                <polygon id="Fill-7" fill="#221F20" points="65.400945 1.62249383 62.8878103 1.62249383 62.8878103 0.660148127 69.0184053 0.660148127 69.0184053 1.62249383 66.5048881 1.62249383 66.5048881 9.01659627 65.400945 9.01659627"></polygon>
                <g id="Group-16" transform="translate(13.005568, 0.050248)">
                    <path d="M64.8207054,3.19191052 C64.6799392,2.62864681 64.3276414,2.14737839 63.8575283,1.80697368 C63.3877978,1.47841911 62.8006347,1.29053712 62.1780888,1.29053712 C61.1447199,1.29053712 60.3930746,1.70146925 59.8998194,2.34691938 C59.4063728,2.99236952 59.1715076,3.86086979 59.1715076,4.78804735 C59.1715076,5.7152249 59.4063728,6.58391631 59.8998194,7.22936644 C60.3930746,7.87481658 61.1447199,8.28555757 62.1780888,8.28555757 C62.8947338,8.28555757 63.5406133,8.03918943 64.0220105,7.60493929 C64.491741,7.17068916 64.8207054,6.54874816 64.9148045,5.80926147 L66.077464,5.95012518 C65.8896483,6.93598002 65.3728682,7.745803 64.6799392,8.29740771 C63.974961,8.86086255 63.0825495,9.17756699 62.1780888,9.17756699 C60.8744719,9.17756699 59.829245,8.73165785 59.1011245,7.95719414 C58.373004,7.18234816 57.9736565,6.09079776 57.9736565,4.78804735 C57.9736565,3.48529694 58.373004,2.38208753 59.1011245,1.60743269 C59.829245,0.832777846 60.8744719,0.39852771 62.1780888,0.39852771 C63.0708828,0.39852771 63.9045779,0.621577846 64.5625066,1.04416898 C65.2200528,1.47841911 65.7251661,2.12386925 65.9716981,2.98071052 L64.8207054,3.19191052 Z" id="Fill-8" fill="#221F20"></path>
                    <g id="Group-12" transform="translate(68.470488, 0.573394)">
                        <mask id="mask-2" fill="white">
                            <use xlink:href="#path-1"></use>
                        </mask>
                        <g id="Clip-11"></g>
                        <polygon id="Fill-10" fill="#221F20" mask="url(#mask-2)" points="0.0844023088 0.0364678371 1.18834549 0.0364678371 1.18834549 3.58080521 5.79231643 3.58080521 5.79231643 0.0364678371 6.89625962 0.0364678371 6.89625962 8.39310711 5.79231643 8.39310711 5.79231643 4.54334205 1.18834549 4.54334205 1.18834549 8.39310711 0.0844023088 8.39310711"></polygon>
                    </g>
                    <g id="Group-15">
                        <mask id="mask-4" fill="white">
                            <use xlink:href="#path-3"></use>
                        </mask>
                        <g id="Clip-14"></g>
                        <path d="M5.2937633,4.71794042 L8.80526656,4.71794042 L8.80526656,5.07000413 C8.80526656,6.29840449 8.41356946,7.32152992 7.63074905,8.13899815 C6.84773737,8.95665752 5.84171846,9.3654872 4.61269232,9.3654872 C3.38328366,9.3654872 2.33040646,8.90963924 1.4536782,7.99813444 C0.576758673,7.08682078 0.138203282,6.01285444 0.138203282,4.7766177 C0.138203282,3.50158132 0.58632159,2.40983978 1.48294072,1.50234874 C2.3793686,0.59466657 3.46169959,0.14092105 4.73012495,0.14092105 C5.42687911,0.14092105 6.09417948,0.291532452 6.73240859,0.592755258 C7.37063769,0.893978063 7.904631,1.31446675 8.3353448,1.85441245 L7.56036598,2.59370802 C7.23924321,2.15563526 6.82822902,1.80567399 6.32732341,1.54325082 C5.82603528,1.28120992 5.30944648,1.1500939 4.77698324,1.1500939 C3.79066395,1.1500939 2.95486497,1.50043743 2.26977757,2.2005511 C1.58449891,2.90104702 1.24214646,3.74775833 1.24214646,4.74144956 C1.24214646,5.68831363 1.58067374,6.52737969 2.25791955,7.25883888 C2.93516536,7.99048919 3.74361439,8.35612322 4.68326665,8.35612322 C5.38786241,8.35612322 6.04120092,8.09408232 6.64423849,7.56980938 C7.2470848,7.04572757 7.56036598,6.43143182 7.58389075,5.7273044 L5.2937633,5.7273044 L5.2937633,4.71794042 Z" id="Fill-13" fill="#221F20" mask="url(#mask-4)"></path>
                    </g>
                </g>
            </g>
            <g id="Page-1" transform="translate(7.000000, 0.000000)">
                <mask id="mask-6" fill="white">
                    <use xlink:href="#path-5"></use>
                </mask>
                <g id="Clip-2"></g>
                <path d="M36.4521333,12.171161 L37.7470791,14.6782829 L39.0379008,12.1705756 L38.4204744,11.156722 L37.7464899,10.4858927 L37.0719163,11.1537951 L36.4521333,12.171161 Z M43.9183969,8.43477073 L45.5809705,7.50989268 L44.9611876,10.731161 L41.1446915,11.6097951 L40.2008775,10.504039 L41.5500248,9.75301463 C41.6183659,9.96023415 41.7350171,10.1457951 41.8864279,10.2968195 C42.1374047,10.5467707 42.4838233,10.700722 42.8650016,10.700722 C43.2450016,10.700722 43.5914202,10.5461854 43.8435752,10.2950634 C44.0933736,10.0462829 44.2489085,9.70267317 44.2489085,9.32394146 C44.2489085,9.02716098 44.1522884,8.74794146 43.9849705,8.51906341 C43.9643504,8.49038049 43.9419628,8.46228293 43.9183969,8.43477073 L43.9183969,8.43477073 Z M33.2966605,9.3953561 L32.2120403,8.7918439 C32.1613736,8.83106341 32.1165984,8.87730732 32.0800713,8.92823415 C31.9993581,9.03945366 31.9528155,9.17642927 31.9528155,9.32394146 C31.9528155,9.51125854 32.0282264,9.68042927 32.1495907,9.8016 C32.270955,9.9233561 32.438862,9.99828293 32.6238543,9.99828293 C32.8123814,9.99828293 32.9814667,9.9233561 33.102831,9.80218537 C33.2088775,9.69681951 33.2801643,9.55457561 33.2966605,9.3953561 L33.2966605,9.3953561 Z M35.2885674,10.504039 L33.938831,9.75301463 C33.8704899,9.96023415 33.7544279,10.1457951 33.6024279,10.2968195 C33.3520403,10.5467707 33.0056217,10.700722 32.6238543,10.700722 C32.2444434,10.700722 31.8997922,10.5461854 31.6494047,10.2962341 C31.4001953,10.0462829 31.2458388,9.70267317 31.2458388,9.32394146 C31.2458388,9.02891707 31.3406915,8.7491122 31.5074202,8.51906341 C31.5286295,8.49038049 31.5504279,8.46286829 31.5728155,8.43594146 L29.9084744,7.50989268 L30.5282574,10.731161 L34.3447535,11.6097951 L35.2885674,10.504039 Z M30.5783349,18.8156488 L37.7470791,22.8055024 L44.9111101,18.8162341 L44.9111101,18.3057951 L37.7476682,22.1668683 L30.5783349,18.3052098 L30.5783349,18.8156488 Z M37.5732806,8.87847805 L37.7476682,8.97681951 L37.9214667,8.87847805 L40.9638233,7.16101463 L41.1935907,7.03106341 L41.1340868,6.77642927 L40.8259628,5.46345366 L47.9016217,1.23945366 L47.9016217,3.37720976 L45.8236992,6.57038049 L38.7592341,10.5016976 L37.9974667,9.74306341 L37.7482574,9.49486829 L37.4984589,9.74189268 L36.7308,10.5022829 L29.6657457,6.57038049 L27.5884124,3.37720976 L27.5884124,1.23945366 L34.6676062,5.46286829 L34.3559473,6.77642927 L34.2952651,7.03106341 L34.5256217,7.16101463 L37.5732806,8.87847805 Z M27.5884124,11.7315512 L27.5884124,7.04920976 L29.4695597,8.9633561 L29.830707,10.8394537 L29.8271721,10.8388683 L29.8448465,10.9149659 L29.8778388,11.0870634 L29.9208465,11.3112585 L29.9367535,11.3147707 L30.3085054,12.9315512 L36.1634512,15.3783805 L37.7476682,17.9604293 L39.3259938,15.3783805 L45.1809395,12.9315512 L45.5526915,11.3147707 L45.5685984,11.3112585 L45.6116062,11.0870634 L45.6445984,10.9149659 L45.6622729,10.8388683 L45.6593271,10.8394537 L46.0198853,8.96277073 L47.9016217,7.04920976 L47.9016217,11.7315512 L46.0511101,14.2293073 L41.2130326,16.9255024 L41.2130326,16.9260878 L37.7453116,18.6529171 L34.6051566,17.1438439 L29.4401023,14.2310634 L27.5884124,11.7315512 Z M29.870769,15.280039 L29.0259318,14.8029659 L28.9599473,14.7660878 L28.9151721,14.7057951 L27.5884124,12.9145756 L27.5884124,17.1514537 L29.870769,18.4216976 L29.870769,15.280039 Z M30.5783349,16.3939902 L30.5783349,16.7656976 L37.7470791,20.7596488 L44.9111101,16.7662829 L44.9111101,16.3939902 L37.7476682,20.0999415 L30.5783349,16.3939902 Z M47.9016217,12.9145756 L46.5742729,14.7057951 L46.5283194,14.7678439 L46.4623349,14.804722 L45.618676,15.2747707 L45.618676,18.4222829 L47.9016217,17.1514537 L47.9016217,12.9145756 Z M20.3454357,20.4482341 C21.1508,20.5348683 21.9108,20.4903805 22.6684434,20.3276488 C24.2025829,19.9986732 25.7520403,19.1844293 27.654986,17.9926244 L27.0617147,17.6630634 L26.8808465,17.5617951 L26.8808465,17.3569171 L26.8808465,16.9319415 L20.3454357,20.4482341 Z M13.0294047,20.1918439 C16.9130636,20.2679415 21.0818698,17.9299902 24.7245674,15.8870634 C25.486924,15.459161 26.2274822,15.0435512 26.8808465,14.6940878 L26.8808465,13.4677463 L13.0294047,20.1918439 Z M48.6085984,16.9377951 L48.6085984,17.3569171 L48.6085984,17.5617951 L48.4277302,17.6630634 L47.8350481,17.9926244 C49.7397612,19.1844293 51.2898078,19.9986732 52.822769,20.3276488 C53.578645,20.4897951 54.3368775,20.5342829 55.1392961,20.4488195 L48.6085984,16.9377951 Z M48.6085984,14.6940878 L48.6085984,13.4730146 L62.454738,20.1918439 C58.5722574,20.2656 54.4058078,17.9288195 50.7648775,15.8870634 C50.0025209,15.459161 49.2619628,15.0435512 48.6085984,14.6940878 L48.6085984,14.6940878 Z M9.21526512,13.6199415 L24.0676682,8.16257561 L23.4231411,7.29272195 L4.19337364,13.2453073 C4.36540465,13.3214049 4.53743566,13.390478 4.70887752,13.4525268 C6.3632031,14.0472585 7.98453643,13.9752585 9.21526512,13.6199415 L9.21526512,13.6199415 Z M7.60983876,17.2796488 C7.78304806,17.320039 7.95625736,17.355161 8.13123411,17.3844293 C9.77613333,17.6636488 11.4764124,17.4722341 12.9439783,17.0490146 L26.2062729,11.0490146 L25.2966295,9.82150244 L7.60983876,17.2796488 Z M62.5490016,17.0496 L49.2843504,11.0472585 L50.1904589,9.82442927 L67.8766605,17.2808195 C67.7052186,17.3206244 67.5325984,17.3557463 67.3593891,17.3850146 C65.7162574,17.6630634 64.0177457,17.4722341 62.5490016,17.0496 L62.5490016,17.0496 Z M68.8764434,14.5764293 L71.4934357,15.5381854 L72.0401643,15.7389659 L71.6083194,16.1270634 C70.3852496,17.2263805 68.9500868,17.8269659 67.4783969,18.0763317 C66.6812806,18.2115512 65.8729705,18.2437463 65.0823349,18.1963317 L66.870986,19.0058927 L67.4719163,19.2775024 L66.9092806,19.6222829 C64.2304279,21.262478 61.3088465,21.1536 58.4061178,20.2696976 C56.2009395,21.1898927 54.4411566,21.3936 52.6737147,21.0136976 C50.9551721,20.6449171 49.2554822,19.7270634 47.1351411,18.382478 L37.9202884,23.5137951 L37.7476682,23.6103805 L37.5744589,23.5137951 L28.3543039,18.382478 C26.2369085,19.7270634 24.5366295,20.6449171 22.8174977,21.0136976 C21.0494667,21.3936 19.2885054,21.1898927 17.0833271,20.2696976 C14.1805984,21.1530146 11.2590171,21.262478 8.57957519,19.6222829 L8.01752868,19.2775024 L8.61845891,19.0058927 L10.4071101,18.1963317 C9.61706357,18.2437463 8.80875349,18.2115512 8.01222636,18.0763317 C6.53994729,17.8269659 5.10419535,17.2263805 3.88112558,16.1270634 L3.44928062,15.7389659 L3.9960093,15.5381854 L6.62773023,14.571161 C5.93076899,14.5190634 5.2019938,14.3750634 4.46850543,14.1116488 C3.04983876,13.6012098 1.61231938,12.6441366 0.347420155,11.038478 L-0.000176744186,10.5971122 L0.551854264,10.480039 L22.8899628,5.73740488 L23.1120713,5.68999024 L23.2475752,5.87320976 L26.8625829,10.7522341 L26.8808465,10.744039 L26.8808465,0.61955122 L26.8808465,0.000234146341 L27.4152031,0.319258537 L30.9082574,2.40257561 L37.7476682,2.40257561 L44.5835442,2.40257561 L48.0742419,0.319258537 L48.6085984,0.000234146341 L48.6085984,0.61955122 L48.6085984,10.7411122 L48.6280403,10.750478 L52.2412806,5.87320976 L52.3773736,5.68999024 L52.5994822,5.73740488 L74.9375907,10.480039 L75.4896217,10.5971122 L75.1420248,11.038478 C73.8765364,12.6458927 72.4407845,13.604722 71.0244744,14.1157463 C70.2945209,14.379161 69.5698698,14.5237463 68.8764434,14.5764293 L68.8764434,14.5764293 Z M51.4217767,8.16257561 L66.2942109,13.6275512 C67.5237612,13.9822829 69.1374357,14.0513561 70.7841023,13.4572098 C70.9561333,13.395161 71.1287535,13.3255024 71.3007845,13.2482341 L52.0651256,7.29389268 L51.4217767,8.16257561 Z M40.2167845,5.95867317 L37.7476682,7.08023415 L35.2756062,5.95925854 L35.414645,5.37389268 L35.4735597,5.12628293 L35.2514512,4.99399024 L32.0859628,3.1056 L37.7476682,3.1056 L43.4064279,3.1056 L40.242707,4.99399024 L40.0217767,5.12569756 L40.0795132,5.37389268 L40.2167845,5.95867317 Z M42.1927845,9.3953561 C42.2092806,9.55457561 42.2805674,9.69681951 42.386614,9.80218537 C42.5079783,9.9233561 42.6770636,9.99828293 42.8650016,9.99828293 C43.0517612,9.99828293 43.2208465,9.92277073 43.3433891,9.80101463 C43.4653426,9.67925854 43.5413426,9.51067317 43.5413426,9.32394146 C43.5413426,9.17877073 43.4942109,9.04238049 43.4129085,8.93057561 C43.3752031,8.87847805 43.3292496,8.83164878 43.2774047,8.7918439 L42.1927845,9.3953561 Z" id="Fill-1" fill="#191919" mask="url(#mask-6)"></path>
            </g>
        </g>
    </g>
</svg>